<svg width="50" height="50" viewBox="0 0 50 50" fill="none" xmlns="http://www.w3.org/2000/svg">
<path d="M41.9386 10.7715C42.687 10.0231 42.687 8.80969 41.9386 8.0613C41.1902 7.3129 39.9769 7.3129 39.2285 8.0613L24.9999 22.2898L10.7715 8.06142C10.0231 7.31302 8.80976 7.31302 8.06136 8.06142C7.31296 8.80982 7.31296 10.0232 8.06136 10.7716L22.2898 25L8.0613 39.2284C7.3129 39.9768 7.3129 41.1902 8.0613 41.9386C8.8097 42.687 10.0231 42.687 10.7715 41.9386L24.9999 27.7102L39.2285 41.9387C39.9769 42.6871 41.1903 42.6871 41.9387 41.9387C42.6871 41.1903 42.6871 39.9769 41.9387 39.2285L27.7101 25L41.9386 10.7715Z"/>
</svg>
