<svg width="39" height="39" viewBox="0 0 39 39" fill="none" xmlns="http://www.w3.org/2000/svg">
<path d="M22.3971 39C22.1743 39 21.97 38.9253 21.7843 38.7759C21.58 38.6078 21.4686 38.3463 21.4686 38.0661V25.0101C21.4686 24.4871 21.8771 24.0762 22.3971 24.0762H25.9257L26.4643 20.546H22.3971C21.8771 20.546 21.4686 20.1351 21.4686 19.6121V16.1006C21.4686 13.7284 22.9914 12.2529 25.4243 12.2529H26.8357V9.39512C26.0557 9.28305 24.8114 9.1523 23.6043 9.1523C19.7414 9.1523 17.5129 11.4684 17.5129 15.4842V19.6121C17.5129 20.1351 17.1043 20.546 16.5843 20.546H12.8143V24.0762H16.6029C17.1229 24.0762 17.5314 24.4871 17.5314 25.0101V38.0661C17.5314 38.3463 17.42 38.6078 17.2157 38.7759C17.0114 38.9626 16.7329 39.0374 16.4729 38.9813C6.92714 37.4871 0 29.3247 0 19.6121C0 8.79741 8.74714 0 19.5 0C30.2529 0 39 8.79741 39 19.6121C39 29.3247 32.0729 37.4871 22.5457 38.9813C22.49 39 22.4529 39 22.3971 39ZM19.5 1.86782C9.76857 1.86782 1.85714 9.82471 1.85714 19.6121C1.85714 28.0359 7.59571 35.1523 15.6743 36.9454V25.9626H11.8857C11.3657 25.9626 10.9571 25.5517 10.9571 25.0287V19.6121C10.9571 19.0891 11.3657 18.6782 11.8857 18.6782H15.6743V15.5029C15.6743 10.4411 18.72 7.30316 23.6229 7.30316C25.7029 7.30316 27.8386 7.65805 27.9314 7.67672C28.3771 7.75144 28.7114 8.14368 28.7114 8.59195V13.1868C28.7114 13.7098 28.3029 14.1207 27.7829 14.1207H25.4429C24.0129 14.1207 23.3443 14.7557 23.3443 16.1006V18.6782H27.56C27.8386 18.6782 28.08 18.7902 28.2657 18.9957C28.4329 19.2012 28.5257 19.4813 28.47 19.7428L27.6529 25.1408C27.5786 25.5891 27.1886 25.9253 26.7429 25.9253H23.3443V36.9081C31.4043 35.1336 37.1614 28.0172 37.1614 19.5747C37.1429 9.82471 29.2314 1.86782 19.5 1.86782Z" />
</svg>
