<svg width="38" height="38" viewBox="0 0 38 38" fill="none" xmlns="http://www.w3.org/2000/svg">
<path d="M19.019 38C13.68 38 13.034 37.981 10.887 37.8859V37.905C9.063 37.8289 7.657 37.5628 6.327 37.0305C5.13 36.5743 4.009 35.8519 3.097 34.9395C2.166 34.027 1.444 32.9245 0.988 31.7269C0.475 30.3772 0.209 28.9705 0.114 27.1646H0.133H0.114C0.0189999 25.0735 0 24.3702 0 19.0285C0 13.7249 0.0189999 13.0215 0.114 10.8924H0.133H0.114C0.19 9.06753 0.456 7.67984 0.988 6.33017C1.444 5.11356 2.166 4.01101 3.078 3.09855C4.009 2.16708 5.092 1.44472 6.308 0.988494C7.638 0.475238 9.044 0.209105 10.868 0.114057V0.133067V0.114057C12.958 0.0190096 13.661 0 19 0C24.32 0 25.023 0.0190096 27.132 0.114057V0.133067V0.0950474C28.956 0.171085 30.362 0.437219 31.692 0.969485C32.908 1.42571 34.01 2.14807 34.922 3.06053C35.853 3.97299 36.575 5.07554 37.031 6.29215C37.544 7.64182 37.829 9.02952 37.905 10.8544H37.886C37.981 13.0025 38 13.6488 38 18.9905C38 24.3322 37.981 24.9785 37.886 27.1266H37.905C37.829 28.9515 37.563 30.3582 37.031 31.6888C36.575 32.9055 35.853 34.008 34.922 34.9205C34.01 35.8519 32.908 36.5743 31.692 37.0305C30.343 37.5438 28.937 37.8289 27.132 37.905V37.8859C25.004 37.981 24.358 38 19.019 38ZM2.774 30.9855C3.135 31.955 3.705 32.8484 4.446 33.5708C5.168 34.3122 6.061 34.9015 7.011 35.2436C7.771 35.5478 8.892 35.8899 10.963 35.985C13.072 36.08 13.718 36.0991 19.019 36.0991C24.32 36.0991 24.966 36.08 27.075 35.985C29.127 35.8899 30.248 35.5478 31.008 35.2436C31.977 34.8824 32.87 34.3122 33.573 33.5708C34.333 32.8294 34.884 31.974 35.245 31.0045C35.549 30.2441 35.891 29.1226 35.986 27.0505C36.081 24.9405 36.1 24.2941 36.1 18.9905C36.1 13.6868 36.081 13.0405 35.986 10.9305C35.891 8.87744 35.549 7.73687 35.245 6.9955C34.846 5.96898 34.352 5.18959 33.573 4.42921C32.794 3.64982 32.034 3.15558 31.008 2.75638C30.248 2.45223 29.127 2.11005 27.056 2.01501L26.562 1.996L10.963 2.01501C8.911 2.11005 7.771 2.47124 7.03 2.75638C6.042 3.11756 5.168 3.68784 4.446 4.42921C3.667 5.2086 3.173 5.96898 2.774 6.9955C2.47 7.75588 2.128 8.87744 2.033 10.9495L2.014 11.4437V27.0885H2.033L2.774 30.9855ZM2.717 30.9285H2.736H2.717ZM19.019 28.3812C16.511 28.3812 14.155 27.4117 12.388 25.6248C10.621 23.8569 9.652 21.4998 9.652 18.9905C9.652 16.4812 10.621 14.1241 12.388 12.3562C14.155 10.5883 16.511 9.61881 19.019 9.61881C21.527 9.61881 23.883 10.5883 25.65 12.3562C27.417 14.1241 28.386 16.4812 28.386 18.9905C28.386 21.4998 27.417 23.8569 25.65 25.6248C23.883 27.3927 21.508 28.3812 19.019 28.3812ZM19.019 11.5578C18.031 11.5578 17.081 11.7479 16.169 12.1281C15.257 12.5083 14.44 13.0405 13.756 13.7439C13.053 14.4282 12.502 15.2456 12.141 16.1581C11.761 17.0705 11.571 18.021 11.571 19.0095C11.571 19.998 11.761 20.9485 12.141 21.8609C12.521 22.7734 13.053 23.5908 13.756 24.2751C14.459 24.9785 15.257 25.5108 16.169 25.8909C18.924 27.0315 22.173 26.3852 24.282 24.2751C25.669 22.8874 26.467 20.9675 26.467 19.0095C26.467 17.0135 25.688 15.1506 24.282 13.7439C22.876 12.3372 20.995 11.5578 19.019 11.5578ZM29.773 11.976C28.88 11.976 28.025 11.6338 27.398 10.9875C26.771 10.3602 26.41 9.50475 26.41 8.61131C26.41 7.71786 26.752 6.86243 27.398 6.23512C28.671 4.96148 30.875 4.96148 32.148 6.23512C32.775 6.86243 33.136 7.71786 33.136 8.61131C33.136 9.50475 32.794 10.3602 32.148 10.9875C31.502 11.6148 30.666 11.976 29.773 11.976ZM29.773 7.14757C29.374 7.14757 29.013 7.29965 28.747 7.58479C28.462 7.86994 28.31 8.23112 28.31 8.61131C28.31 8.9915 28.462 9.37169 28.747 9.63782C29.298 10.1891 30.267 10.1891 30.818 9.63782C31.084 9.37169 31.236 8.9915 31.236 8.61131C31.236 8.23112 31.084 7.85093 30.818 7.58479C30.514 7.29965 30.153 7.14757 29.773 7.14757Z" />
</svg>
