<svg width="370" height="125" viewBox="0 0 370 125" fill="none" xmlns="http://www.w3.org/2000/svg">
<path d="M79.3466 64.1921V67.8156H64.9536V64.1921C64.9536 59.9433 68.1726 56.4854 72.1501 56.4854C76.1276 56.4854 79.3466 59.9433 79.3466 64.1921Z" fill="white"/>
<path d="M62.5855 23.249C40.922 23.249 23.3655 40.7042 23.3655 62.2427C23.3655 83.7812 40.922 101.236 62.5855 101.236C84.249 101.236 101.805 83.7812 101.805 62.2427C101.824 40.7042 84.2675 23.249 62.5855 23.249ZM84.508 79.9187H79.365V74.2351H64.972V79.9187H59.8105V74.2351H40.7V44.5668H62.937V50.9677H47.36V56.4856H57.757V62.3163H47.36V67.8343H59.792V64.2108C59.792 57.1294 65.342 51.3723 72.15 51.3723C78.958 51.3723 84.4895 57.1294 84.4895 64.2108V79.9187H84.508Z" fill="white"/>
<path d="M44.178 111.003C44.0115 111.003 43.8265 110.967 43.66 110.911C32.4675 106.607 23.0325 98.5327 17.0385 88.1589C16.6315 87.4599 16.872 86.5771 17.575 86.1908C18.278 85.7861 19.166 86.0253 19.5545 86.7242C25.197 96.5094 34.1325 104.143 44.696 108.208C45.436 108.502 45.8245 109.33 45.5285 110.084C45.3065 110.654 44.7515 111.003 44.178 111.003Z" fill="white"/>
<path d="M62.604 114.425C61.8085 114.425 61.1425 113.781 61.1425 112.972C61.1425 112.162 61.79 111.519 62.604 111.519C89.947 111.519 112.184 89.4099 112.184 62.2246C112.184 35.0394 89.947 12.9307 62.604 12.9307C35.261 12.9307 13.024 35.0394 13.024 62.2246C13.024 63.0155 12.3765 63.6777 11.5625 63.6777C10.7485 63.6777 10.101 63.0339 10.101 62.2246C10.101 33.4576 33.6515 10.043 62.5855 10.043C91.5195 10.043 115.07 33.4576 115.07 62.2246C115.07 91.0101 91.538 114.425 62.604 114.425Z" fill="white"/>
<path d="M62.604 124.485C28.083 124.485 0 96.5643 0 62.2425C0 45.615 6.512 29.9807 18.3335 18.2274C18.907 17.6573 19.8135 17.6573 20.387 18.2274C20.9605 18.7976 20.9605 19.6989 20.387 20.2691C9.1205 31.4706 2.9045 46.3875 2.9045 62.2425C2.9045 94.9641 29.6925 121.598 62.604 121.598C95.5155 121.598 122.304 94.9641 122.304 62.2425C122.304 61.4516 122.951 60.7894 123.765 60.7894C124.561 60.7894 125.227 61.4332 125.227 62.2425C125.19 96.5643 97.1065 124.485 62.604 124.485Z" fill="white"/>
<path d="M101.843 17.0689C101.51 17.0689 101.177 16.9586 100.918 16.7379C90.2061 7.81714 76.5901 2.90613 62.6041 2.90613C61.8086 2.90613 61.1426 2.26237 61.1426 1.45307C61.1426 0.662157 61.7901 0 62.6041 0C77.2746 0 91.5566 5.15011 102.786 14.5123C103.397 15.0273 103.489 15.9286 102.971 16.5539C102.675 16.885 102.268 17.0689 101.843 17.0689Z" fill="white"/>
<path d="M146.242 46.1486V41.8813H160.062V33.9906H146.242V30.1832H161.986V21.9062H135.42V54.4071H162.596V46.1486H146.242Z" fill="white"/>
<path d="M199.079 29.5211C197.525 27.0748 195.379 25.1986 192.585 23.8927C189.792 22.5684 186.591 21.9062 182.947 21.9062H166.833V54.4071H182.947C186.591 54.4071 189.792 53.745 192.585 52.439C195.36 51.1147 197.525 49.2386 199.079 46.7923C200.614 44.346 201.391 41.4767 201.391 38.1659C201.391 34.8551 200.614 31.9858 199.079 29.5211ZM188.164 43.8494C186.739 45.2105 184.852 45.8727 182.484 45.8727H177.859V30.4591H182.484C184.852 30.4591 186.739 31.1397 188.164 32.4824C189.57 33.8251 190.291 35.7196 190.291 38.1659C190.291 40.6122 189.57 42.5067 188.164 43.8494Z" fill="white"/>
<path d="M226.144 21.9062V39.4534C226.144 41.8261 225.719 43.5551 224.868 44.6403C224.017 45.7255 222.777 46.2589 221.168 46.2589C219.54 46.2589 218.3 45.7255 217.449 44.6403C216.598 43.5551 216.173 41.8261 216.173 39.4534V21.9062H205.165V39.7845C205.165 44.6403 206.571 48.4109 209.365 51.1147C212.158 53.8002 216.062 55.1429 221.075 55.1429C226.089 55.1429 229.992 53.8002 232.786 51.1147C235.579 48.4109 236.985 44.6403 236.985 39.7845V21.9062H226.144Z" fill="white"/>
<path d="M259.481 46.2959C257.187 46.2959 255.318 45.5602 253.931 44.0887C252.525 42.6173 251.822 40.6492 251.822 38.1661C251.822 35.683 252.525 33.7149 253.931 32.2435C255.337 30.772 257.187 30.0363 259.481 30.0363C262.219 30.0363 264.605 31.3054 266.622 33.8437L273.578 27.6636C271.95 25.5667 269.915 23.9481 267.417 22.8261C264.92 21.7041 262.089 21.1523 258.926 21.1523C255.466 21.1523 252.358 21.8697 249.583 23.3044C246.827 24.739 244.644 26.7439 243.071 29.3373C241.499 31.9124 240.722 34.8553 240.722 38.1293C240.722 41.4217 241.499 44.3462 243.071 46.9213C244.644 49.4963 246.827 51.5196 249.583 52.9543C252.358 54.389 255.466 55.1063 258.926 55.1063C262.108 55.1063 264.938 54.5545 267.417 53.4325C269.915 52.3105 271.95 50.7103 273.578 48.6135L266.622 42.4333C264.587 45.0268 262.219 46.2959 259.481 46.2959Z" fill="white"/>
<path d="M297.85 21.9062H287.027L272.745 54.4071H283.956L286.158 48.742H298.571L300.773 54.4071H312.169L297.85 21.9062ZM289.173 40.8697L292.355 32.7031L295.537 40.8697H289.173Z" fill="white"/>
<path d="M309.801 21.9062V30.4039H319.366V54.4071H330.392V30.4223H339.956V21.9246H309.801V21.9062Z" fill="white"/>
<path d="M353.646 46.1486V41.8813H367.465V33.9906H353.646V30.1832H369.389V21.9062H342.823V54.4071H370V46.1486H353.646Z" fill="white"/>
<path d="M156.547 63.0154H145.909L131.886 94.9093H142.894L145.04 89.3545H157.231L159.377 94.9093H170.57L156.547 63.0154ZM148.018 81.611L151.145 73.5915L154.271 81.611H148.018Z" fill="white"/>
<path d="M193.066 86.1539C191.808 86.6689 190.513 86.9264 189.125 86.9264C186.813 86.9264 184.944 86.1907 183.557 84.7376C182.169 83.2846 181.466 81.3533 181.466 78.9621C181.466 76.4974 182.169 74.5478 183.575 73.1315C184.981 71.7152 186.887 70.9979 189.255 70.9979C192.03 70.9979 194.435 72.175 196.451 74.511L203.37 68.4596C201.724 66.4547 199.652 64.9281 197.154 63.8797C194.657 62.8313 191.845 62.2979 188.7 62.2979C185.222 62.2979 182.095 63.0152 179.339 64.4131C176.582 65.8294 174.418 67.7974 172.882 70.3357C171.347 72.874 170.57 75.7433 170.57 78.9621C170.57 82.181 171.347 85.0687 172.882 87.5886C174.436 90.1268 176.564 92.0949 179.283 93.5112C182.003 94.9275 185.074 95.6264 188.496 95.6264C190.92 95.6264 193.362 95.277 195.878 94.578C198.375 93.8791 200.577 92.8858 202.482 91.5799V78.0977H193.084V86.1539H193.066Z" fill="white"/>
<path d="M217.726 86.7979V82.6042H231.287V74.8606H217.726V71.1268H233.174V63.0154H207.089V94.9093H233.766V86.7979H217.726Z" fill="white"/>
<path d="M259.018 63.0154V77.5093L246.827 63.0154H237.947V94.9093H248.492V80.4338L260.683 94.9093H269.582V63.0154H259.018Z" fill="white"/>
<path d="M291.93 86.9448C289.673 86.9448 287.86 86.2275 286.472 84.7928C285.103 83.3397 284.419 81.4084 284.419 78.9805C284.419 76.5526 285.103 74.6029 286.472 73.1683C287.86 71.7336 289.673 70.9979 291.93 70.9979C294.612 70.9979 296.962 72.2486 298.941 74.7317L305.768 68.6803C304.177 66.6019 302.16 65.0384 299.718 63.9349C297.276 62.8313 294.501 62.2979 291.375 62.2979C287.989 62.2979 284.918 63.0152 282.217 64.4131C279.498 65.8294 277.37 67.7974 275.816 70.3357C274.262 72.874 273.504 75.7433 273.504 78.9621C273.504 82.181 274.262 85.0687 275.816 87.5886C277.37 90.1268 279.479 92.0949 282.217 93.5112C284.937 94.9275 287.989 95.6264 291.375 95.6264C294.483 95.6264 297.258 95.0746 299.718 93.9894C302.16 92.9042 304.177 91.3224 305.768 89.2624L298.941 83.211C296.943 85.6941 294.612 86.9448 291.93 86.9448Z" fill="white"/>
<path d="M329.596 63.0157L322.991 74.0333L316.442 63.0157H305.028L317.127 83.1931V94.8912H327.949V83.3219L340.048 62.9973H329.596V63.0157Z" fill="white"/>
</svg>
