<svg width="173" height="60" viewBox="0 0 173 60" fill="none" xmlns="http://www.w3.org/2000/svg">
<path d="M33.2104 48.6743C43.8104 47.3959 51.3384 37.9979 50.0246 27.6833C48.7108 17.3688 39.0528 10.0435 28.4527 11.3219C17.8527 12.6003 10.3248 21.9983 11.6385 32.3129C12.9523 42.6274 22.6104 49.9527 33.2104 48.6743Z" fill="#006FBB"/>
<path d="M21.7483 53.4992C21.6663 53.4992 21.5842 53.4856 21.5042 53.4544C15.9997 51.3796 11.3472 47.4869 8.40288 42.4926C8.21686 42.1773 8.32887 41.7744 8.6529 41.5934C8.97694 41.4124 9.39098 41.5214 9.577 41.8367C12.3673 46.5702 16.7777 50.2605 21.9923 52.2263C22.3403 52.3567 22.5143 52.7382 22.3783 53.0788C22.2743 53.3396 22.0183 53.4992 21.7483 53.4992Z" fill="#E8DF16"/>
<path d="M30.8312 55.1439C30.4572 55.1439 30.1551 54.85 30.1551 54.486C30.1551 54.122 30.4592 53.8281 30.8312 53.8281C44.3326 53.8281 55.3178 43.1388 55.3178 30.001C55.3178 16.8631 44.3326 6.17381 30.8312 6.17381C17.3298 6.17381 6.34466 16.8631 6.34466 30.001C6.34466 30.3649 6.04063 30.6588 5.66859 30.6588C5.29455 30.6588 4.99252 30.3649 4.99252 30.001C4.99252 16.1372 16.5837 4.85613 30.8332 4.85613C45.0807 4.85613 56.6739 16.1352 56.6739 30.001C56.6719 43.8629 45.0787 55.1439 30.8312 55.1439Z" fill="#006FBB"/>
<path d="M30.8312 60C13.8314 60 0 46.541 0 29.999C0 21.9859 3.20633 14.4516 9.03094 8.7858C9.29497 8.52888 9.72301 8.52888 9.98904 8.7858C10.2531 9.04272 10.2531 9.45924 9.98904 9.7181C4.42046 15.1348 1.35414 22.3382 1.35414 29.999C1.35414 45.815 14.5775 58.6823 30.8312 58.6823C47.0849 58.6823 60.3083 45.815 60.3083 29.999C60.3083 29.6351 60.6123 29.3412 60.9843 29.3412C61.3584 29.3412 61.6604 29.637 61.6604 29.999C61.6624 46.541 47.831 60 30.8312 60Z" fill="#DC3619"/>
<path d="M50.1852 8.15713C50.0312 8.15713 49.8772 8.10653 49.7512 8.00337C44.4626 3.69027 37.7439 1.31573 30.8312 1.31573C30.4572 1.31573 30.1551 1.01988 30.1551 0.657865C30.1551 0.293898 30.4592 0 30.8312 0C38.06 0 45.0887 2.48354 50.6213 6.99516C50.9073 7.22873 50.9453 7.6433 50.7053 7.92357C50.5713 8.07733 50.3792 8.15713 50.1852 8.15713Z" fill="#E8DF16"/>
<path d="M44.506 43.306C52.0587 35.9567 52.0587 24.0412 44.506 16.6919C36.9533 9.3426 24.708 9.3426 17.1554 16.6919C9.6027 24.0412 9.6027 35.9567 17.1554 43.306C24.708 50.6553 36.9533 50.6553 44.506 43.306Z" fill="#006FBB"/>
<path d="M30.9992 24.557V21.4682H20.0301V35.7835H29.9811V32.6966H23.3204V30.036H28.453V27.2157H23.3204V24.557H30.9992Z" fill="white"/>
<path d="M35.5437 24.7497C32.1853 24.7497 29.4551 27.5271 29.4551 30.941V38.5279H31.9953V35.7835H39.0921V38.5279H41.6323V30.941C41.6323 27.5291 38.902 24.7497 35.5437 24.7497ZM31.9953 32.6966V30.943C31.9953 28.8915 33.5875 27.2235 35.5437 27.2235C37.4999 27.2235 39.0921 28.8915 39.0921 30.943V32.6966H31.9953Z" fill="#E8DF16"/>
<path d="M78.8782 23.6539H71.4114V21.7426H77.7261V18.2139H71.4114V16.5128H78.6002V12.8166H66.4629V27.3481H78.8782V23.6539Z" fill="#006FBB"/>
<path d="M92.4676 26.4664C93.7337 25.8786 94.7218 25.0416 95.4319 23.9536C96.142 22.8676 96.498 21.5694 96.498 20.0609C96.498 18.5662 96.142 17.2796 95.4319 16.1994C94.7198 15.1192 93.7317 14.2861 92.4676 13.6983C91.2015 13.1105 89.7373 12.8166 88.0732 12.8166H80.7124V27.3481H88.0732C89.7373 27.3481 91.2015 27.0542 92.4676 26.4664ZM85.7469 16.6373H87.8591C88.5692 16.6373 89.1933 16.7697 89.7253 17.0324C90.2594 17.2952 90.6754 17.6825 90.9734 18.1944C91.2715 18.7063 91.4215 19.3291 91.4215 20.0629C91.4215 20.8103 91.2715 21.4428 90.9734 21.9625C90.6754 22.4822 90.2594 22.8734 89.7253 23.1362C89.1913 23.3989 88.5692 23.5313 87.8591 23.5313H85.7469V16.6373Z" fill="#006FBB"/>
<path d="M107.699 20.6643C107.699 21.7718 107.497 22.5562 107.091 23.0213C106.685 23.4846 106.127 23.7162 105.417 23.7162C104.721 23.7162 104.165 23.4846 103.753 23.0213C103.341 22.5581 103.135 21.7718 103.135 20.6643V12.8166H98.1002V20.8083C98.1002 22.9805 98.7402 24.6699 100.02 25.8727C101.301 27.0775 103.085 27.6789 105.375 27.6789C107.665 27.6789 109.449 27.0775 110.729 25.8727C112.01 24.6679 112.65 22.9805 112.65 20.8083V12.8166H107.701V20.6643H107.699Z" fill="#006FBB"/>
<path d="M126.089 22.0131C125.647 22.5523 125.161 22.9707 124.627 23.2685C124.093 23.5663 123.493 23.7142 122.825 23.7142C122.299 23.7142 121.823 23.6305 121.395 23.4651C120.969 23.2996 120.603 23.0564 120.296 22.7391C119.99 22.4218 119.752 22.0365 119.582 21.5869C119.412 21.1373 119.326 20.6351 119.326 20.0823C119.326 19.5296 119.412 19.0274 119.582 18.5778C119.752 18.1282 119.99 17.7448 120.296 17.4256C120.603 17.1083 120.969 16.865 121.395 16.6996C121.821 16.5341 122.297 16.4505 122.825 16.4505C123.493 16.4505 124.095 16.5984 124.627 16.8962C125.161 17.194 125.647 17.6124 126.089 18.1516L129.267 15.3916C128.527 14.4516 127.593 13.7314 126.461 13.2331C125.331 12.7349 124.033 12.4858 122.569 12.4858C121.375 12.4858 120.268 12.6687 119.252 13.0366C118.236 13.4025 117.354 13.926 116.608 14.6034C115.862 15.2807 115.282 16.0845 114.87 17.011C114.458 17.9375 114.252 18.9632 114.252 20.0843C114.252 21.2054 114.458 22.2292 114.87 23.1576C115.282 24.084 115.862 24.8879 116.608 25.5652C117.354 26.2425 118.236 26.7661 119.252 27.132C120.268 27.4979 121.375 27.6828 122.569 27.6828C124.033 27.6828 125.331 27.4298 126.461 26.9257C127.591 26.4216 128.527 25.7053 129.267 24.7769L126.089 22.0131Z" fill="#006FBB"/>
<path d="M134.896 24.8159H140.575L141.575 27.3481H146.779L140.251 12.8166H135.302L128.773 27.3481H133.894L134.896 24.8159ZM137.736 17.6261L139.182 21.2871H136.29L137.736 17.6261Z" fill="#006FBB"/>
<path d="M145.609 16.6159H149.982V27.3481H155.016V16.6159H159.391V12.8166H145.609V16.6159Z" fill="#006FBB"/>
<path d="M165.533 23.6539V21.7426H171.848V18.2139H165.533V16.5128H172.724V12.8166H160.585V27.3481H173V23.6539H165.533Z" fill="#006FBB"/>
<path d="M71.3694 32.6499L64.8407 47.1813H69.9613L70.9614 44.6491H76.64L77.6401 47.1813H82.8446L76.3159 32.6499H71.3694ZM72.3555 41.1204L73.8017 37.4593L75.2478 41.1204H72.3555Z" fill="#006FBB"/>
<path d="M88.4152 37.2588C88.7272 36.9416 89.1093 36.6983 89.5573 36.5328C90.0054 36.3674 90.5074 36.2837 91.0615 36.2837C91.7295 36.2837 92.3376 36.418 92.8857 36.6885C93.4337 36.9591 93.9418 37.3561 94.4118 37.8817L97.6341 35.1217C96.8801 34.2225 95.924 33.5296 94.7639 33.045C93.6037 32.5603 92.2856 32.319 90.8074 32.319C89.5693 32.319 88.4352 32.502 87.4051 32.8698C86.373 33.2357 85.4809 33.7593 84.7268 34.4366C83.9727 35.1139 83.3907 35.9178 82.9766 36.8442C82.5646 37.7707 82.3586 38.7964 82.3586 39.9175C82.3586 41.0386 82.5646 42.0624 82.9766 42.9889C83.3887 43.9153 83.9687 44.7192 84.7148 45.3965C85.4609 46.0758 86.343 46.5974 87.3611 46.9633C88.3772 47.3292 89.4913 47.5141 90.6994 47.5141C91.7935 47.5141 92.9257 47.3545 94.0918 47.0373C95.2579 46.72 96.296 46.2626 97.2061 45.667C97.2061 43.892 97.2061 40.4314 97.2061 38.7205H89.9953V42.3485H92.8316V43.2069C92.7736 43.2302 92.7176 43.2516 92.6616 43.2711C92.1216 43.4579 91.5655 43.5514 90.9975 43.5514C90.4574 43.5514 89.9693 43.4657 89.5353 43.2925C89.1013 43.1193 88.7272 42.874 88.4152 42.5548C88.1032 42.2376 87.8611 41.8522 87.6891 41.4026C87.5191 40.953 87.4331 40.4586 87.4331 39.9195C87.4331 39.3531 87.5191 38.847 87.6891 38.4033C87.8591 37.9576 88.1012 37.5761 88.4152 37.2588Z" fill="#006FBB"/>
<path d="M103.817 41.5758H110.131V38.0471H103.817V36.346H111.008V32.6499H98.8683V47.1813H111.284V43.4852H103.817V41.5758Z" fill="#006FBB"/>
<path d="M122.547 39.2577L116.872 32.6499H112.734V47.1813H117.64V40.5735L123.315 47.1813H127.453V32.6499H122.547V39.2577Z" fill="#006FBB"/>
<path d="M134.846 37.2588C135.152 36.9415 135.518 36.6982 135.944 36.5328C136.37 36.3674 136.846 36.2837 137.374 36.2837C138.042 36.2837 138.644 36.4316 139.176 36.7294C139.711 37.0272 140.197 37.4456 140.639 37.9848L143.817 35.2229C143.077 34.2809 142.143 33.5627 141.011 33.0644C139.881 32.5662 138.582 32.317 137.118 32.317C135.924 32.317 134.818 32.5 133.8 32.8678C132.784 33.2338 131.902 33.7573 131.156 34.4346C130.41 35.112 129.829 35.9158 129.417 36.8423C129.005 37.7687 128.799 38.7945 128.799 39.9156C128.799 41.0366 129.005 42.0604 129.417 42.9869C129.829 43.9133 130.41 44.7172 131.156 45.3945C131.902 46.0738 132.784 46.5954 133.8 46.9613C134.816 47.3272 135.922 47.5121 137.118 47.5121C138.582 47.5121 139.881 47.2591 141.011 46.755C142.141 46.2509 143.077 45.5347 143.817 44.6062L140.639 41.8463C140.197 42.3855 139.711 42.8039 139.176 43.1017C138.642 43.3995 138.042 43.5474 137.374 43.5474C136.848 43.5474 136.372 43.4637 135.944 43.2983C135.518 43.1329 135.152 42.8896 134.846 42.5723C134.54 42.2551 134.302 41.8697 134.132 41.4201C133.962 40.9705 133.876 40.4683 133.876 39.9156C133.876 39.3628 133.962 38.8606 134.132 38.411C134.302 37.9614 134.54 37.576 134.846 37.2588Z" fill="#006FBB"/>
<path d="M151.344 37.6831L148.295 32.6499H142.985L148.615 41.8522V47.1813H153.652V41.9106L159.283 32.6499H154.42L151.344 37.6831Z" fill="#006FBB"/>
</svg>
