<svg width="30" height="27" viewBox="0 0 30 27" fill="none" xmlns="http://www.w3.org/2000/svg">
<path d="M27.4988 0.391517C27.0141 0.34011 26.4872 0.415807 25.9578 0.625078C25.3016 0.883203 15.0186 5.20885 5.43294 9.24406L2.26562 10.5771C1.03917 11.0744 0.419922 11.8831 0.419922 12.9725C0.419922 13.7352 0.742715 14.7697 2.28271 15.3793L7.62899 17.5212C8.09128 18.9081 9.16502 22.1282 9.43481 22.9843C9.59523 23.4918 10.0004 24.7703 11.0242 25.0693C11.2342 25.1407 11.4533 25.1775 11.6764 25.1775C12.3225 25.1775 12.7876 24.8768 13.0151 24.7018L16.4132 21.8279L20.5404 25.6446C20.6993 25.8065 21.5407 26.6244 22.6709 26.6244C24.0811 26.6244 25.1508 25.4505 25.3739 24.3144C25.495 23.6917 29.4755 3.70973 29.4755 3.71264C29.8328 2.10993 29.1904 1.27853 28.7777 0.92415C28.424 0.621546 27.9835 0.442923 27.4988 0.391517ZM26.5332 3.54174C25.9834 6.29799 22.9863 21.3427 22.5313 23.5112L16.4986 17.9314L12.4056 21.3978L13.5392 16.963C13.5392 16.963 21.3596 9.04693 21.8306 8.5861C22.2098 8.21714 22.2892 8.0878 22.2892 7.95947C22.2892 7.78884 22.2014 7.66609 21.9987 7.66609C21.8164 7.66609 21.5688 7.84077 21.4376 7.92244C19.7702 8.96196 12.6702 13.0069 9.17562 14.9948L4.10563 12.9696L6.56657 11.9357C12.8359 9.29612 24.0015 4.59466 26.5332 3.54174Z"/>
</svg>
