<svg width="37" height="39" viewBox="0 0 37 39" fill="none" xmlns="http://www.w3.org/2000/svg">
<path d="M18.5 38.9811C8.29857 38.9811 0 30.4618 0 19.9891C0 9.51635 8.29857 0.99707 18.5 0.99707C28.7014 0.99707 37 9.51635 37 19.9891C37 30.4618 28.7014 38.9811 18.5 38.9811ZM18.5 2.80583C9.26762 2.80583 1.7619 10.5112 1.7619 19.9891C1.7619 29.467 9.26762 37.1723 18.5 37.1723C27.7324 37.1723 35.2381 29.467 35.2381 19.9891C35.2381 10.5112 27.7324 2.80583 18.5 2.80583ZM23.2748 29.9735C22.2705 29.9735 21.4952 29.4128 20.7552 28.8701C20.5614 28.7254 20.3852 28.5988 20.1914 28.4541C18.641 27.4231 17.7776 26.772 16.2624 25.741C15.7514 25.3973 15.0467 24.8185 14.9762 23.9684C14.8881 23.064 15.54 22.4309 16.1038 21.8702C16.2271 21.7436 16.3681 21.617 16.4914 21.4723C16.5267 21.4361 16.6852 21.2914 16.8967 21.0744C16.2271 21.5446 15.4519 22.0692 14.5886 22.6661C13.7429 23.263 12.9148 23.5162 12.1571 23.5524C11.3995 23.5343 10.1133 23.1544 9.1619 22.8469L8.7919 22.7203C7.77 22.3947 6.50143 21.9787 6.66 20.6764C6.76571 19.772 7.71714 19.2837 8.51 18.94C13.6195 16.6429 17.0552 15.1416 18.7819 14.4C23.9795 12.1752 24.8781 11.8858 25.671 11.8677C25.8295 11.8497 26.4462 11.8858 26.9219 12.2838C27.2214 12.537 27.4152 12.8806 27.4857 13.3328C27.521 13.4956 27.5562 13.9116 27.521 14.2734C27.239 17.2398 26.0762 24.2578 25.5124 27.3508C25.1424 29.3766 24.2262 29.8649 23.5214 29.9373C23.451 29.9735 23.3629 29.9735 23.2748 29.9735ZM16.7205 23.8418C16.7557 23.8418 16.879 24.0045 17.2138 24.2397C17.8833 24.6919 18.4295 25.0717 18.9757 25.4516L19.1871 25.5963C19.7862 26.0123 20.3852 26.4283 21.1429 26.9347C21.3543 27.0794 21.5657 27.2422 21.7771 27.3869C22.4643 27.8934 22.9224 28.219 23.3805 28.1647C23.4333 28.1285 23.6448 27.8572 23.8033 27.0433C24.3495 24.0588 25.53 16.9865 25.7943 14.1106C25.8119 13.9659 25.7943 13.7308 25.7767 13.6403C25.1952 13.6946 23.8562 14.2191 19.469 16.0822C17.76 16.8057 14.3419 18.325 9.21476 20.6222C9.03857 20.6945 8.89762 20.7488 8.7919 20.803C8.96809 20.8754 9.16191 20.9296 9.3381 20.9839L9.72571 21.1105C10.8533 21.4904 11.8048 21.7255 12.21 21.7255C12.6152 21.7255 13.0733 21.5446 13.6019 21.1648C20.9314 16.0822 21.09 16.046 21.3367 15.9917C21.5305 15.9555 22.059 15.8289 22.4995 16.245C22.8695 16.5886 22.9224 17.0951 22.8519 17.4387C22.7638 17.8367 22.711 18.0175 18.5176 22.0149C18.1124 22.3947 17.8305 22.6661 17.76 22.7384C17.619 22.9012 17.4605 23.0459 17.3195 23.1906C17.1081 23.3896 16.791 23.6971 16.7205 23.8418Z" />
</svg>
