<svg width="32" height="36" viewBox="0 0 32 36" fill="none" xmlns="http://www.w3.org/2000/svg">
<path d="M20.3858 17.5115C19.2098 16.8641 17.9997 17.273 17.4543 17.9885L16.8408 18.7722C16.8237 18.7893 16.7385 18.8063 16.8067 18.8233C13.2957 17.9204 12.1197 14.6324 11.9151 13.985C11.9151 13.9509 11.9322 13.8998 11.9151 13.8998L12.6992 13.2694C13.432 12.7072 13.8411 11.4976 13.1764 10.3051C12.9378 9.87917 12.4605 9.11253 12.1197 8.63551C11.7447 8.14145 10.8925 7.11926 10.8925 7.11926C10.2449 6.33558 9.22225 6.13114 8.2678 6.59113C8.21667 6.60816 8.18259 6.6252 8.13145 6.64224C6.52935 7.54517 4.87612 9.28289 5.47265 11.1399C5.48969 11.191 5.83056 12.4176 7.29632 15.0412C7.94397 16.2167 8.65981 17.3071 9.42677 18.2611C10.2619 19.3174 11.3186 20.3737 12.3924 21.2425C14.4717 22.8951 17.71 24.6157 19.3632 25.1268C19.4143 25.1439 19.4484 25.1609 19.4996 25.1779C19.7893 25.2631 20.062 25.3142 20.3347 25.3142C21.8857 25.3142 23.2151 23.9684 24.0332 22.5373C24.0673 22.4862 24.0843 22.4521 24.1014 22.401C24.5445 21.4469 24.34 20.4248 23.6071 19.8455C22.6356 18.9255 21.2721 18.0226 20.3858 17.5115ZM22.414 21.6514C22.397 21.6684 22.397 21.6855 22.3799 21.7195C21.8005 22.7076 20.846 23.5765 20.1643 23.4573C20.1131 23.4402 20.062 23.4232 20.0109 23.4061C18.8008 23.0654 15.6136 21.464 13.5343 19.8114C12.5628 19.0448 11.6084 18.0908 10.8584 17.1367C10.1596 16.2508 9.49495 15.2457 8.89842 14.1553C7.56901 11.7702 7.24518 10.6628 7.24518 10.6117C7.00657 9.87917 7.90989 8.90809 8.96659 8.29478C8.98364 8.29478 9.00068 8.27774 9.01772 8.2607C9.32451 8.10738 9.40973 8.22663 9.4779 8.29478C9.4779 8.29478 10.279 9.24882 10.6198 9.72584C10.9437 10.1518 11.3527 10.8332 11.5743 11.208C11.7618 11.5317 11.6084 11.7702 11.5572 11.8213L10.7562 12.4517C9.98921 13.082 10.0574 14.0701 10.0915 14.3427C10.1426 14.5472 11.472 19.3515 16.5169 20.6292C16.6362 20.6462 17.6248 20.6973 18.2554 19.9307L18.903 19.1129C18.9371 19.0789 19.1757 18.9255 19.4996 19.1129C20.3517 19.59 21.5789 20.4248 22.414 21.2084C22.4652 21.2766 22.5674 21.3618 22.414 21.6514Z" />
<path d="M15.9204 0.560547C4.72277 0.560547 0.120986 4.80263 0.00168015 15.1949C-0.0494508 19.9651 1.16065 24.0539 3.22293 26.1323C4.21146 27.1204 5.45565 27.87 6.90436 28.3811C6.90436 29.8974 6.87027 33.458 6.87027 33.8498C6.85323 34.838 7.36454 35.1957 7.67132 35.332C7.82471 35.4002 7.97811 35.4172 8.1315 35.4172C8.50646 35.4172 8.89847 35.2468 9.22229 34.9061C10.2108 33.901 12.9549 30.6299 13.8752 29.5396C20.8972 29.9315 25.4649 28.8241 28.226 26.0642C30.7143 23.5768 31.6006 18.6703 31.6006 14.9053C31.6347 4.56412 27.2374 0.560547 15.9204 0.560547ZM26.9647 24.7353C24.5786 27.1204 20.1814 28.0745 13.5514 27.6486C13.2616 27.6145 12.9719 27.7508 12.7844 27.9723C12.7503 28.0063 10.2449 31.0218 8.72803 32.7254C8.72803 30.9366 8.74507 27.6656 8.74507 27.6656C8.74507 27.2567 8.47237 26.8819 8.08037 26.7797C6.63166 26.3708 5.4386 25.7064 4.51825 24.8035C2.81388 23.0998 1.79126 19.4199 1.82535 15.1949C1.92761 5.8589 5.72835 2.38345 15.9034 2.38345C27.5101 2.38345 29.794 6.96627 29.794 14.8712C29.794 19.1474 28.6861 23.0146 26.9647 24.7353Z" />
<path d="M21.8857 15.4161H21.9028C22.397 15.4161 22.8061 15.0243 22.8231 14.5132C22.9083 10.5607 20.2154 7.7156 16.125 7.42598C15.6136 7.3919 15.1705 7.76671 15.1364 8.2778C15.1023 8.7889 15.4773 9.23185 15.9886 9.26592C19.1417 9.48739 21.0506 11.4977 20.9824 14.4791C20.9654 14.9902 21.3744 15.3991 21.8857 15.4161Z" />
<path d="M15.5112 5.04102C14.9999 5.04102 14.5908 5.44989 14.5908 5.96099C14.5908 6.47208 14.9999 6.88096 15.5112 6.88096C20.2493 6.91503 23.4535 10.2712 23.5046 15.2288C23.5046 15.7399 23.9137 16.1318 24.425 16.1318C24.9363 16.1318 25.3454 15.7059 25.3454 15.2118C25.2772 9.26607 21.2378 5.07509 15.5112 5.04102Z" />
<path d="M16.5682 9.91393C16.0228 9.87986 15.6308 10.2717 15.5967 10.7828C15.5626 11.2939 15.9717 11.7198 16.483 11.7539C17.8806 11.822 18.5282 12.5035 18.5964 13.9516C18.6134 14.4456 19.0225 14.8204 19.5168 14.8204C19.5338 14.8204 19.5508 14.8204 19.5679 14.8204C20.0792 14.8034 20.4712 14.3605 20.4371 13.8664C20.3178 11.4813 18.9032 10.0332 16.5682 9.91393Z" />
</svg>
