<svg width="32" height="35" viewBox="0 0 32 35" fill="none" xmlns="http://www.w3.org/2000/svg">
<path d="M8.17922 34.9828C8.02245 34.9828 7.8831 34.9494 7.74375 34.8993C7.44763 34.7825 6.9599 34.4487 6.9599 33.514C6.9599 33.1302 6.97731 29.5751 6.97731 28.1063C-0.234133 25.7864 -0.0773624 18.5093 0.0271514 14.537L0.0445703 14.1197C0.131665 9.51318 1.21164 6.39207 3.42385 4.28907C7.76117 0.517033 16.2442 1.00106 16.5926 1.03444C24.7969 1.06782 28.0891 3.7216 28.42 4.02203C31.4335 6.5089 32.6354 12.1837 31.6774 19.5775C30.7542 26.7377 25.5808 27.8894 23.8911 28.2732C23.7343 28.3066 23.6124 28.34 23.5253 28.3567C23.4905 28.3734 19.4493 29.4749 14.0146 29.2079C13.1088 30.2594 10.2695 33.514 9.24178 34.4988C8.92824 34.8159 8.54502 34.9828 8.17922 34.9828ZM15.4081 2.6701C13.0391 2.6701 7.53472 2.95384 4.60834 5.50747C2.77935 7.25997 1.87356 10.0139 1.78647 14.1531L1.76905 14.5704C1.68195 18.4426 1.52518 24.9351 8.09213 26.6709C8.47534 26.7711 8.73663 27.1049 8.73663 27.4721C8.73663 27.4721 8.71921 30.8936 8.71921 32.5961C10.2695 30.9437 12.952 27.8393 12.9869 27.8059C13.161 27.6056 13.4397 27.4888 13.7184 27.5055C18.9616 27.8393 22.9853 26.7711 23.0202 26.7544C23.1421 26.721 23.2989 26.6876 23.5253 26.6376C25.0756 26.2871 29.2039 25.3691 29.9878 19.3605C30.8587 12.6176 29.8484 7.34342 27.3052 5.25712C26.2775 4.37253 22.7415 2.72017 16.5577 2.68679C16.5055 2.70348 16.0874 2.6701 15.4081 2.6701Z" />
<path d="M21.1563 23.9504C20.8951 23.9504 20.6164 23.917 20.3377 23.8169C20.2854 23.8002 20.2506 23.7835 20.1983 23.7668C18.5783 23.2828 15.3907 21.6638 13.3527 20.1116C12.2901 19.3105 11.245 18.309 10.4263 17.3076C9.67725 16.4063 8.96307 15.3882 8.31857 14.27C6.90764 11.7998 6.55926 10.6481 6.54184 10.5981C5.96702 8.86225 7.58698 7.24328 9.15468 6.39207C9.18952 6.37538 9.24178 6.35869 9.27662 6.342C10.1998 5.92474 11.1927 6.10833 11.8198 6.84271C11.8198 6.84271 12.6559 7.79406 13.0217 8.27809C13.3701 8.72873 13.823 9.44642 14.0668 9.84699C14.7113 10.9486 14.2933 12.0835 13.5965 12.6009L12.8301 13.1851C12.8301 13.2018 12.7952 13.3019 12.8127 13.352C12.8301 13.352 13.8926 16.9571 17.6726 17.8918C17.6029 17.8751 17.69 17.8584 17.7074 17.8417L18.3171 17.1073C18.8396 16.4397 20.0241 16.0558 21.1738 16.6734C22.0447 17.1407 23.4034 17.9919 24.344 18.8598C25.0582 19.4106 25.2498 20.362 24.8143 21.2466C24.7969 21.2966 24.7795 21.33 24.7446 21.3801C23.9782 22.6986 22.6718 23.9504 21.1563 23.9504ZM20.9822 22.2647C21.7312 22.3815 22.637 21.5303 23.2118 20.5956C23.2118 20.5789 23.2292 20.5623 23.2466 20.5289C23.4034 20.2284 23.2989 20.145 23.2118 20.0782C22.3757 19.3272 21.1738 18.5427 20.3202 18.0921C19.9719 17.9085 19.728 18.0587 19.6931 18.1088L19.0486 18.8765C18.4564 19.5942 17.4809 19.5274 17.3764 19.5274C12.4469 18.3424 11.1404 13.8193 11.0882 13.619C11.0534 13.3687 10.9837 12.4507 11.7327 11.8832L12.534 11.2657C12.6036 11.2156 12.743 10.9652 12.5688 10.6481C12.3598 10.2976 11.9417 9.6467 11.6282 9.24613C11.2972 8.79549 10.4959 7.9109 10.4959 7.89421C10.4263 7.81076 10.3218 7.69392 9.99079 7.86083C9.97338 7.87752 9.95596 7.87752 9.92112 7.89421C8.91082 8.46168 7.97019 9.37966 8.21406 10.114C8.23148 10.1474 8.54502 11.1989 9.85144 13.4688C10.4437 14.5036 11.0882 15.455 11.7849 16.2728C12.534 17.1741 13.4746 18.0754 14.4326 18.8098C16.4881 20.3787 19.6409 21.8975 20.8254 22.2146C20.8776 22.2313 20.9299 22.248 20.9822 22.2647Z" />
</svg>
